/* XPM */
static char *result[] = {
/* columns rows colors chars-per-pixel */
"32 32 51 1 ",
"  c #5B696B",
". c #5C7172",
"X c #6E7676",
"o c #777C7C",
"O c #797D7E",
"+ c #7E8182",
"@ c #6DF2FF",
"# c #6EF2FF",
"$ c #6FF2FF",
"% c #71F2FF",
"& c #808384",
"* c #8E8C8C",
"= c #9D9E9E",
"- c #9C9E9F",
"; c #94A4A5",
": c #9DA2A3",
"> c #95AAAE",
", c #A0A1A1",
"< c #A0A2A2",
"1 c #A5AAAA",
"2 c #AAB2B3",
"3 c #B4BABA",
"4 c #B6BBBC",
"5 c #B2BFBF",
"6 c #ABC3C7",
"7 c #BDC1C1",
"8 c #80F3FF",
"9 c #9CF5FF",
"0 c #A8F7FF",
"q c #BAF1F8",
"w c #C3CACB",
"e c #C9CACA",
"r c #CACACA",
"t c #CBD2D3",
"y c #CDD3D3",
"u c #CBD3D4",
"i c #CED3D4",
"p c #CBDADA",
"a c #D6DCDD",
"s c gray87",
"d c #DFDFDF",
"f c #D9E1E2",
"g c #DAE2E3",
"h c #D2E5E8",
"j c #DFE7E8",
"k c #CFF9FF",
"l c #E5EBEC",
"z c #E6ECEC",
"x c #EBF1F2",
"c c #E5FCFF",
"v c #E6FDFF",
/* pixels */
";;;;;;;;;;;;;;;;;;;;;;;;;;;;;;;;",
";ppp666666ppp6666ppp666666ppp666",
";pjjpppppjjjppjppjjppppppjjjppjp",
";pjjjjjjxxxjjxjpjxjjjjjjxxxjjxjp",
";6pjjjjxxxjjxjjpjjjjjjjxxxjjxjjp",
";6pjjjxxxjjxjjjpjjjjjjxxxjjxjjjp",
";6pjjxxxjjxjjjjpjjjjjxxxjjxjjjjp",
";6pjxxxjjluwwww5wwwwialjjxjjjjjp",
";6pxxxjjxt:OoOOXOOO+&1tjxjjjjjjp",
";6jxxjjzu4=**********=4agjjjjjjp",
";pjxjjxu:-esdssssssdse<:ujjjjjjp",
";pjjjzu3=2hcvccccccvch2=3ugjjjjp",
";ppjxu:=ehq0000000000qhe=:ujjjjp",
";6plt4-2hk9%$%%%%%%$%9kh2-4tfxjp",
";6pu:=ehq98#@######@#89qhe=:ujjp",
".;6> *sc0%#%%%%%%%%%%#%0cs* >666",
";6pwo*dv0$@%%%%%%%%%%@$0vd*owjjp",
";ppyo*dv0$@%%%%%%%%%%@$0vd*+yjjp",
";pjwO*sc0%#%%%%%%%%%%#%0cs*&wjjp",
";pju:=ehq98#@######@#89qhr,:uxjp",
";6pft4-2hk9%$%%%%%%$%9kh2<4tljjp",
";6pjju1,rhq0000000000qhr,:uxjjjp",
";6pjjza7=2hcvccccccvch2,3uzjjjjp",
";6pjxxxu:<esdssssssdsr<:uxjjjjjp",
";6pxxxjga4=**********,4uzjjjjjjp",
";6jxxjjxjt:OoOOXOO&+&:txjjjjjjjp",
";pjxjjxjjfuwwww5wiiywuljjjjjjjjp",
";pjjjxjjjjjjjjjpjxxjjxjjjjjjjjjp",
";ppjxjjjjjjjjjjpjxjjxjjjjjjjjjjp",
";6pxjjjjjjjjjxjpjjjxjjjjjjjjjxjp",
";6pjjjjjjjjjjjjpjjjjjjjjjjjjjjjp",
".;666666666666666666666666666666"
};
