/* XPM */
static char *result[] = {
/* columns rows colors chars-per-pixel */
"32 32 21 1 ",
"  c black",
". c #6DF2FF",
"X c #6EF2FF",
"o c #6FF2FF",
"O c #71F2FF",
"+ c #878585",
"@ c #868686",
"# c #8E8C8C",
"$ c #AAB2B3",
"% c #80F3FF",
"& c #9CF5FF",
"* c #A8F7FF",
"= c #BAF1F8",
"- c #C8C8C8",
"; c gray87",
": c #DFDFDF",
"> c #D2E5E8",
", c #CFF9FF",
"< c #E5FCFF",
"1 c #E6FDFF",
"2 c None",
/* pixels */
"22222222222222222222222222222222",
"22222222222222222222222222222222",
"22222222222222222222222222222222",
"22222222222222222222222222222222",
"22222222222222222222222222222222",
"22222222222222222222222222222222",
"22222222222222222222222222222222",
"22222222222222222222222222222222",
"2222222222            2222222222",
"2222222222+##########+2222222222",
"22222222 @-;:;;;;;;:;-@ 22222222",
"22222222+$><1<<<<<<1<>$+22222222",
"222222 +->=**********=>-+ 222222",
"222222@$>,&OoOOOOOOoO&,>$@222222",
"2222 +->=&%X.XXXXXX.X%&=>-+ 2222",
"2222 #;<*OXOOOOOOOOOOXO*<;# 2222",
"2222 #:1*o.OOOOOOOOOO.o*1:# 2222",
"2222 #:1*o.OOOOOOOOOO.o*1:# 2222",
"2222 #;<*OXOOOOOOOOOOXO*<;# 2222",
"2222 +->=&%X.XXXXXX.X%&=>-+ 2222",
"222222@$>,&OoOOOOOOoO&,>$@222222",
"222222 +->=**********=>-+ 222222",
"22222222+$><1<<<<<<1<>$+22222222",
"22222222 @-;:;;;;;;:;-@ 22222222",
"2222222222+##########+2222222222",
"2222222222            2222222222",
"22222222222222222222222222222222",
"22222222222222222222222222222222",
"22222222222222222222222222222222",
"22222222222222222222222222222222",
"22222222222222222222222222222222",
"22222222222222222222222222222222"
};
