/* XPM */
static char *result[] = {
/* columns rows colors chars-per-pixel */
"32 32 50 1 ",
"  c #5C7172",
". c #6DF2FF",
"X c #6EF2FF",
"o c #6FF2FF",
"O c #71F2FF",
"+ c #7FF3FF",
"@ c #94A4A5",
"# c #ABC3C7",
"$ c #A6C3D7",
"% c #BFD4E4",
"& c #A1C5F2",
"* c #ABCBF6",
"= c #B1CFF9",
"- c #B2CFF9",
"; c #BFD6F5",
": c #B5D2FC",
"> c #B6D2FC",
", c #BFD7FF",
"< c #9BF5FF",
"1 c #A7F6FF",
"2 c #A8F6FF",
"3 c #BDF5FF",
"4 c #CBDADA",
"5 c #CFDEEE",
"6 c #D0DEEE",
"7 c #CBDCF3",
"8 c #CBDDF3",
"9 c #C2D9FB",
"0 c #C3D9FB",
"q c #C6DBF9",
"w c #C5DBFD",
"e c #C6DBFD",
"r c #D4E1ED",
"t c #DCE5E9",
"y c #DFE7E8",
"u c #CAE1FF",
"i c #D9E6F5",
"p c #D9E6F6",
"a c #DEE9F5",
"s c #D2E2F8",
"d c #DDE9FE",
"f c #DEE9FE",
"g c #CFF9FF",
"h c #DBF3FF",
"j c #DCF3FF",
"k c #E7EFF3",
"l c #EBF1F2",
"z c #EAF1FF",
"x c #EBF2FF",
"c c #E5FCFF",
/* pixels */
"@@@@@@@@@@@@@@@@@@@@@@@@@@@@@@@@",
"@444######444####444######444###",
"@4yy44444yyy44y44yy444444yyy44y4",
"@4yyyyyylllyyly4ylyyyyyylllyyly4",
"@#4yyyylllyylyy4yyyyyyylllyylyy4",
"@#4yyylllyylyyy4yyyyyylllyylyyy4",
"@#4yylllyylyyyy4yyyyylllyylyyyy4",
"@#4ylllyykr6566%6665iakyylyyyyy4",
"@#4lllyylr;-=--*---:>qrylyyyyyy4",
"@#yllyykr80,,,,,,,,,,08atyyyyyy4",
"@4ylyylr;9dzxzzzzzzxzdw;ryyyyyy4",
"@4yyykr70ujccccccccccju07rtyyyy4",
"@44ylr;0dh321222222123hd0;ryyyy4",
"@#4kr89uhg<OoOOOOOOoO<ghu98rtly4",
"@#4r;0dj3<+X.XXXXXX.X+<3jd0;ryy4",
" @#$&,zc2OXOOOOOOOOOOXO2cz,&$###",
"@#45=,xc1o.OOOOOOOOOO.o1cx,=5yy4",
"@44p=,xc1o.OOOOOOOOOO.o1cx,:pyy4",
"@4y6-,zc2OXOOOOOOOOOOXO2cz,>6yy4",
"@4yr;0dj3<+X.XXXXXX.X+<3jfe;rly4",
"@#4tr89uhg<OoOOOOOOoO<ghuw8rkyy4",
"@#4yyrqefh321222222123hfe;rlyyy4",
"@#4yykas0ujccccccccccjue7rkyyyy4",
"@#4ylllr;wdzxzzzzzzxzfw;rlyyyyy4",
"@#4lllyta80,,,,,,,,,,e8rkyyyyyy4",
"@#yllyylyr;-=--*-->:>;rlyyyyyyy4",
"@4ylyylyytr6566%6iip6rkyyyyyyyy4",
"@4yyylyyyyyyyyy4yllyylyyyyyyyyy4",
"@44ylyyyyyyyyyy4ylyylyyyyyyyyyy4",
"@#4lyyyyyyyyyly4yyylyyyyyyyyyly4",
"@#4yyyyyyyyyyyy4yyyyyyyyyyyyyyy4",
" @##############################"
};
