/* XPM */
static char *result[] = {
/* columns rows colors chars-per-pixel */
"32 32 22 1 ",
"  c #6DF2FF",
". c #6EF2FF",
"X c #6FF2FF",
"o c #71F2FF",
"O c #7FF3FF",
"+ c #9EC6FF",
"@ c #BBD5FF",
"# c #BCD5FF",
"$ c #BFD7FF",
"% c #9BF5FF",
"& c #A7F6FF",
"* c #A8F6FF",
"= c #BDF5FF",
"- c #CAE1FF",
"; c #DDE9FF",
": c #CFF9FF",
"> c #DBF3FF",
", c #DCF3FF",
"< c #EAF1FF",
"1 c #EBF2FF",
"2 c #E5FCFF",
"3 c None",
/* pixels */
"33333333333333333333333333333333",
"33333333333333333333333333333333",
"33333333333333333333333333333333",
"33333333333333333333333333333333",
"33333333333333333333333333333333",
"33333333333333333333333333333333",
"33333333333333333333333333333333",
"33333333333333333333333333333333",
"3333333333++++++++++++3333333333",
"3333333333#$$$$$$$$$$#3333333333",
"33333333+@;<1<<<<<<1<;@+33333333",
"33333333#-,2222222222,-#33333333",
"333333+#;>=*&******&*=>;#+333333",
"333333@->:%oXooooooXo%:>-@333333",
"3333+#;,=%O. ...... .O%=,;#+3333",
"3333+$<2*o.oooooooooo.o*2<$+3333",
"3333+$12&X oooooooooo X&21$+3333",
"3333+$12&X oooooooooo X&21$+3333",
"3333+$<2*o.oooooooooo.o*2<$+3333",
"3333+#;,=%O. ...... .O%=,;#+3333",
"333333@->:%oXooooooXo%:>-@333333",
"333333+#;>=*&******&*=>;#+333333",
"33333333#-,2222222222,-#33333333",
"33333333+@;<1<<<<<<1<;@+33333333",
"3333333333#$$$$$$$$$$#3333333333",
"3333333333++++++++++++3333333333",
"33333333333333333333333333333333",
"33333333333333333333333333333333",
"33333333333333333333333333333333",
"33333333333333333333333333333333",
"33333333333333333333333333333333",
"33333333333333333333333333333333"
};
