/* XPM */
static char *result[] = {
/* columns rows colors chars-per-pixel */
"32 32 14 1 ",
"  c #1D181E",
". c #432F53",
"X c #5C436F",
"o c #5F5F7B",
"O c #5C7172",
"+ c #AE0000",
"@ c #B572B1",
"# c #7784A2",
"$ c #94A4A5",
"% c #ABC3C7",
"& c #CBDADA",
"* c #FFF9D6",
"= c #DFE7E8",
"- c #EBF1F2",
/* pixels */
"$$$$$$$$$$$$$$$$$$$$$$$$$$$$$$$$",
"$&...%%%%%&&&%%%%&&&%%%%%%&&   %",
"$.o@@....===&&=&&==&&&&&....@@o ",
"$&...o@@@.-==-=&=-=====.@@@o.. &",
"$%& XXX.oo =-==&======.@o..XX =&",
"$%&= ..@.o -===&======.@.o.. ==&",
"$%&== o..o. ===&===== .o.Xo ===&",
"$%&= o..o.. ===&====- ..oX.o ==&",
"$%&--  .o.X = =&=== - .Xo.  ===&",
"$%=--= oXX.. # &== # .XX.o ====&",
"$&=-== oXX.. @.   .@ ..XXo ====&",
"$&=== o.X.oo @#.#.o@ oo...o ===&",
"$&&=-=  .o...  o##  .X.o.  ====&",
"$%&-=== o..X. + # + .XX.o ===-=&",
"$%&==== ..X.. .@#o. .XX.. =====&",
"O$%%%%%% ....  * *  ..X. %%%%%%%",
"$%&====== .. oX X XX .. =======&",
"$&&-======   oXoXXXo   ===---==&",
"$&=======--- ##ooXo# ====---===&",
"$&======---== ##### ====---==-=&",
"$%&====---==- X   X ===---==-==&",
"$%&===---==-== &== ===---==-===&",
"$%&==---==-====&=====---==-====&",
"$%&=---==-=====&====---==-=====&",
"$%&---==-======&===---==-======&",
"$%=--==-=======&==---==-=======&",
"$&=-==-========&=---==-========&",
"$&===-=========&=--==-=========&",
"$&&=-==========&=-==-==========&",
"$%&-=========-=&===-=========-=&",
"$%&============&===============&",
"O$%%%%%%%%%%%%%%%%%%%%%%%%%%%%%%"
};
