/* XPM */
static char *result[] = {
/* columns rows colors chars-per-pixel */
"32 32 133 2 ",
"   c #4B4D4D",
".  c #4B4E4E",
"X  c #4D4F4F",
"o  c #4E4F4F",
"O  c #4D5050",
"+  c #505151",
"@  c #515554",
"#  c #535454",
"$  c #555656",
"%  c #555858",
"&  c #595B5A",
"*  c #595B5B",
"=  c #5A5C5C",
"-  c #5C6060",
";  c #606362",
":  c #606363",
">  c #626665",
",  c #636665",
"<  c #626666",
"1  c #666767",
"2  c #616A69",
"3  c #676A69",
"4  c #626C6B",
"5  c #626C6C",
"6  c #636C6C",
"7  c #636D6D",
"8  c #696E6D",
"9  c #6A6E6D",
"0  c #6B6E6E",
"q  c #6D6F6F",
"w  c #6E7170",
"e  c #6A7575",
"r  c #6C7575",
"t  c #6E7877",
"y  c #6D7978",
"u  c #6F7A79",
"i  c #6F7A7A",
"p  c #6F7B7B",
"a  c #6F7C7C",
"s  c #6F7D7C",
"d  c #6F7D7D",
"f  c #6F7E7D",
"g  c #717171",
"h  c #717272",
"j  c #727272",
"k  c #727373",
"l  c #727374",
"z  c #707574",
"x  c #717575",
"c  c #727575",
"v  c #717675",
"b  c #727675",
"n  c #717676",
"m  c #717776",
"M  c #727776",
"N  c #737776",
"B  c #737777",
"V  c #747777",
"C  c #757777",
"Z  c #717877",
"A  c #727877",
"S  c #737877",
"D  c #757877",
"F  c #717778",
"G  c #717978",
"H  c #707A79",
"J  c #717B7A",
"K  c #707A7B",
"L  c #707B7B",
"P  c #707C7B",
"I  c #717C7C",
"U  c #707E7D",
"Y  c #707F7E",
"T  c #708080",
"R  c #738080",
"E  c #738382",
"W  c #748181",
"Q  c #748383",
"!  c #708686",
"~  c #718787",
"^  c #738787",
"/  c #748585",
"(  c #758585",
")  c #7F8484",
"_  c #7F8585",
"`  c #7F8686",
"'  c #7B8887",
"]  c #72898B",
"[  c #748989",
"{  c #748B8B",
"}  c #728C8B",
"|  c #728F8E",
" . c #748E8E",
".. c #7B8988",
"X. c #7B8B8A",
"o. c #7C8989",
"O. c #7E8C8B",
"+. c #7D8B8C",
"@. c #7D8D8C",
"#. c #7C8D8D",
"$. c #72908F",
"%. c #74918F",
"&. c #739390",
"*. c #719292",
"=. c #779391",
"-. c #729493",
";. c #749693",
":. c #749695",
">. c #789694",
",. c #779A9A",
"<. c #719F9E",
"1. c #789A9A",
"2. c #789C9A",
"3. c #71A3A1",
"4. c #74A3A2",
"5. c #74A5A2",
"6. c #808282",
"7. c #808383",
"8. c #808484",
"9. c #818485",
"0. c #818585",
"q. c #828484",
"w. c #828485",
"e. c #828585",
"r. c #818686",
"t. c #808787",
"y. c #818787",
"u. c #828686",
"i. c #828788",
"p. c #828888",
"a. c #828889",
"s. c #828989",
"d. c None",
/* pixels */
"d.d.d.d.d.d.d.d.d.d.d.d.d.d.d.d.d.d.d.d.d.d.d.d.d.d.d.d.d.d.d.d.",
"d.d.d.d.d.d.d.d.d.d.d.d.d.d.d.d.d.d.d.d.d.d.d.d.d.d.d.d.d.d.d.d.",
"d.d.d.d.d.d.d.d.d.d.d.d.d.d.d.d.d.d.d.d.d.d.d.d.d.d.d.d.d.d.d.d.",
"d.d.d.d.d.d.d.d.d.d.d.d.d.d.d.d.d.d.d.d.d.d.d.d.d.d.d.d.d.d.d.d.",
"d.d.d.d.d.d.d.d.d.d.d.d.d.d.d.d.d.d.d.d.d.d.d.d.d.d.d.d.d.d.d.d.",
"d.d.d.d.d.d.d.d.d.d.d.d.d.d.d.d.d.d.d.d.d.d.d.d.d.d.d.d.d.d.d.d.",
"d.d.d.d.d.d.d.d.d.d.d.d.d.d.d.d.d.d.d.d.d.d.d.d.d.d.d.d.d.d.d.d.",
"d.d.d.d.d.d.d.d.d.d.d.d.d.d.d.d.d.d.d.d.d.d.d.d.d.d.d.d.d.d.d.d.",
"d.d.d.d.d.d.d.d.d.d.d.d.d.d.d.d.d.d.d.d.d.d.d.d.d.d.d.d.d.d.d.d.",
"d.d.d.d.d.d.d.d.d.d.d.d.d.d.d.d.d.d.d.d.d.d.d.d.d.d.d.d.d.d.d.d.",
"d.d.d.d.d.d.d.d.d.d.d.d.d.d.d.d.d.d.d.d.d.d.d.d.d.d.d.d.d.d.d.d.",
"d.d.d.d.d.d.<.| ' 6.6.7.) _ ` t.t.` _ 8.7.6.6...$.4.d.d.d.d.d.d.",
"d.d.d.d.d.d.$.g h n a f a i t 6 2 r u p s a F k g :.d.d.d.d.d.d.",
"d.d.d.d.d.d.o.l ( } Y G M M > - : - x m Z P ! ^ c @.d.d.d.d.d.d.",
"d.d.d.d.d.d.6.Q 2.J b N V c = 3 0 & w V M n m  .{ q.d.d.d.d.d.d.",
"d.d.d.d.d.d.6.=.>.z M N C q + # $ o 1 D N M v E 1.u.d.d.d.d.d.d.",
"d.d.d.d.d.d.6.R ,.I v M B 9 X * ;   , S M v Z %.[ w.d.d.d.d.d.d.",
"d.d.d.d.d.d.X.k W ] T H Z 8 O @ % . < A G U ~ / c #.d.d.d.d.d.d.",
"d.d.d.d.d.d.&.g k x K d s y 7 4 4 5 e p a L n k j -.d.d.d.d.d.d.",
"d.d.d.d.d.d.5.;.O.9.0.e.r.y.p.s.s.a.i.u.e.e.e.+.*.3.d.d.d.d.d.d.",
"d.d.d.d.d.d.d.d.d.d.d.d.d.d.d.d.d.d.d.d.d.d.d.d.d.d.d.d.d.d.d.d.",
"d.d.d.d.d.d.d.d.d.d.d.d.d.d.d.d.d.d.d.d.d.d.d.d.d.d.d.d.d.d.d.d.",
"d.d.d.d.d.d.d.d.d.d.d.d.d.d.d.d.d.d.d.d.d.d.d.d.d.d.d.d.d.d.d.d.",
"d.d.d.d.d.d.d.d.d.d.d.d.d.d.d.d.d.d.d.d.d.d.d.d.d.d.d.d.d.d.d.d.",
"d.d.d.d.d.d.d.d.d.d.d.d.d.d.d.d.d.d.d.d.d.d.d.d.d.d.d.d.d.d.d.d.",
"d.d.d.d.d.d.d.d.d.d.d.d.d.d.d.d.d.d.d.d.d.d.d.d.d.d.d.d.d.d.d.d.",
"d.d.d.d.d.d.d.d.d.d.d.d.d.d.d.d.d.d.d.d.d.d.d.d.d.d.d.d.d.d.d.d.",
"d.d.d.d.d.d.d.d.d.d.d.d.d.d.d.d.d.d.d.d.d.d.d.d.d.d.d.d.d.d.d.d.",
"d.d.d.d.d.d.d.d.d.d.d.d.d.d.d.d.d.d.d.d.d.d.d.d.d.d.d.d.d.d.d.d.",
"d.d.d.d.d.d.d.d.d.d.d.d.d.d.d.d.d.d.d.d.d.d.d.d.d.d.d.d.d.d.d.d.",
"d.d.d.d.d.d.d.d.d.d.d.d.d.d.d.d.d.d.d.d.d.d.d.d.d.d.d.d.d.d.d.d.",
"d.d.d.d.d.d.d.d.d.d.d.d.d.d.d.d.d.d.d.d.d.d.d.d.d.d.d.d.d.d.d.d."
};
