/* XPM */
static char *result[] = {
/* columns rows colors chars-per-pixel */
"32 32 184 2 ",
"   c #4B4D4D",
".  c #4B4E4E",
"X  c #4D4F4F",
"o  c #4E4F4F",
"O  c #4D5050",
"+  c #505151",
"@  c #515554",
"#  c #535454",
"$  c #555656",
"%  c #555858",
"&  c #595B5A",
"*  c #595B5B",
"=  c #5A5C5C",
"-  c #5C6060",
";  c #5C7172",
":  c #606362",
">  c #606363",
",  c #626665",
"<  c #636665",
"1  c #626666",
"2  c #666767",
"3  c #616A69",
"4  c #676A69",
"5  c #626C6B",
"6  c #626C6C",
"7  c #636C6C",
"8  c #636D6D",
"9  c #696E6D",
"0  c #6A6E6D",
"q  c #6B6E6E",
"w  c #6D6F6F",
"e  c #6E7170",
"r  c #6A7575",
"t  c #6C7575",
"y  c #6E7877",
"u  c #6D7978",
"i  c #6F7A79",
"p  c #6F7A7A",
"a  c #6F7B7B",
"s  c #6F7C7C",
"d  c #6F7D7C",
"f  c #6F7D7D",
"g  c #6F7E7D",
"h  c #717171",
"j  c #717272",
"k  c #727272",
"l  c #727373",
"z  c #727374",
"x  c #707574",
"c  c #717575",
"v  c #727575",
"b  c #717675",
"n  c #727675",
"m  c #717676",
"M  c #717776",
"N  c #727776",
"B  c #737776",
"V  c #737777",
"C  c #747777",
"Z  c #757777",
"A  c #717877",
"S  c #727877",
"D  c #737877",
"F  c #757877",
"G  c #717778",
"H  c #717978",
"J  c #707A79",
"K  c #717B7A",
"L  c #707A7B",
"P  c #707B7B",
"I  c #707C7B",
"U  c #717C7C",
"Y  c #707E7D",
"T  c #707F7E",
"R  c #708080",
"E  c #738080",
"W  c #738382",
"Q  c #748181",
"!  c #748383",
"~  c #708686",
"^  c #718787",
"/  c #738787",
"(  c #748585",
")  c #758585",
"_  c #72898B",
"`  c #748989",
"'  c #748B8B",
"]  c #728C8B",
"[  c #748E8E",
"{  c #74918F",
"}  c #779291",
"|  c #779391",
" . c #769392",
".. c #779392",
"X. c #779693",
"o. c #789694",
"O. c #789797",
"+. c #789897",
"@. c #7A9A97",
"#. c #779A9A",
"$. c #7A9A99",
"%. c #789A9A",
"&. c #789C9A",
"*. c #7AA4A3",
"=. c #7EA8A8",
"-. c #7EAAA8",
";. c #828585",
":. c #858787",
">. c #858888",
",. c #848989",
"<. c #858989",
"1. c #868888",
"2. c #84898A",
"3. c #848A8A",
"4. c #848B8B",
"5. c #858B8B",
"6. c #808C8B",
"7. c #808D8C",
"8. c #818D8D",
"9. c #808F8E",
"0. c #858C8C",
"q. c #878D8D",
"w. c #878F8F",
"e. c #888A8A",
"r. c #888A8B",
"t. c #888C8C",
"y. c #898C8C",
"u. c #898C8D",
"i. c #898D8D",
"p. c #898E8F",
"a. c #898F8F",
"s. c #839291",
"d. c #819192",
"f. c #839192",
"g. c #859292",
"h. c #899090",
"j. c #8A9091",
"k. c #94A4A5",
"l. c #A6B8BB",
"z. c #A5B9BC",
"x. c #ABC3C7",
"c. c #BDC9C9",
"v. c #C0CCCC",
"b. c #C1D4D4",
"n. c #C2D4D5",
"m. c #C3D4D5",
"M. c #C2D5D5",
"N. c #C3D5D5",
"B. c #C2D6D5",
"V. c #C7D4D4",
"C. c #C5D5D7",
"Z. c #C5D7D7",
"A. c #C6D7D7",
"S. c #C8D3D4",
"D. c #CCD3D4",
"F. c #CDD3D4",
"G. c #C8D4D4",
"H. c #CAD5D6",
"J. c #CCD4D4",
"K. c #CDD4D4",
"L. c #CED5D5",
"P. c #CED5D6",
"I. c #CFD6D7",
"U. c #CFD7D7",
"Y. c #CFD7D8",
"T. c #CBDADA",
"R. c #CBDBDB",
"E. c #CCDBDC",
"W. c #CDDDDD",
"Q. c #CEDCDD",
"!. c #CEDDDE",
"~. c #CFDEDE",
"^. c #CFDFDF",
"/. c #D0D7D8",
"(. c #D6DBDC",
"). c #D2DCDD",
"_. c #D4DEDF",
"`. c #D5DEDF",
"'. c #D9DEDF",
"]. c #D5DFE0",
"[. c #D6E0E1",
"{. c #D7E1E1",
"}. c #DFE7E8",
"|. c #EBF1F2",
/* pixels */
"k.k.k.k.k.k.k.k.k.k.k.k.k.k.k.k.k.k.k.k.k.k.k.k.k.k.k.k.k.k.k.k.",
"k.T.T.T.x.x.x.x.x.x.T.T.T.x.x.x.x.T.T.T.x.x.x.x.x.x.T.T.T.x.x.x.",
"k.T.}.}.T.T.T.T.T.}.}.}.T.T.}.T.T.}.}.T.T.T.T.T.T.}.}.}.T.T.}.T.",
"k.T.}.}.}.}.}.}.|.|.|.}.}.|.}.T.}.|.}.}.}.}.}.}.|.|.|.}.}.|.}.T.",
"k.x.T.}.}.}.}.|.|.|.}.}.|.}.}.T.}.}.}.}.}.}.}.|.|.|.}.}.|.}.}.T.",
"k.x.T.}.}.}.|.|.|.}.}.|.}.}.}.T.}.}.}.}.}.}.|.|.|.}.}.|.}.}.}.T.",
"k.x.T.}.}.|.|.|.}.}.|.}.}.}.}.T.}.}.}.}.}.|.|.|.}.}.|.}.}.}.}.T.",
"k.x.T.}.|.|.|.}.}.|.}.}.}.}.}.T.}.}.}.}.|.|.|.}.}.|.}.}.}.}.}.T.",
"k.x.T.|.|.|.}.}.|.}.}.}.}.}.}.T.}.}.}.|.|.|.}.}.|.}.}.}.}.}.}.T.",
"k.x.}.|.|.}.}.|.}.}.}.}.}.}.}.T.}.}.|.|.|.}.}.|.}.}.}.}.}.}.}.T.",
"k.T.}.|.}.].E.n.S.D.D.D.D.D.D.c.D.(.(.(.J.J.(.G.M.m.[.}.}.}.}.T.",
"k.T.}.}.}.R.*.} 6.:.:.>.,.3.4.4.0.0.5.<.>.1.:.7...=.C.}.}.}.}.T.",
"k.T.T.}.|.b. .h j m s g s p y 7 3 t i a d s G l h $.Z.}.}.}.}.T.",
"k.x.T.|.}.S.8.z ) ] T H N N , - > - c M A I ~ / v s.H.}.}.|.}.T.",
"k.x.T.}.}.F.:.! &.K n B C v = 4 q & e C N m M [ ' e.P.}.}.}.}.T.",
"; k.x.x.x.l.;.| o.x N B Z w + # $ o 2 F B N b W %.2.z.x.x.x.x.x.",
"k.x.T.}.}.K.:.E #.U b N V 0 X * :   < D N b A { ` r.L.}.}.}.}.T.",
"k.T.T.|.}.V.9.l Q _ R J A 9 O @ % . 1 S H Y ^ ( v d.).|.|.}.}.T.",
"k.T.}.}.}.B.X.h l c L f d u 8 5 5 6 r a s P m l k +.W.|.}.}.}.T.",
"k.T.}.}.}.N.-.@.g.u.i.t.q.a.a.w.h.j.p.i.y.y.y.f.O.-.Q.}.}.|.}.T.",
"k.x.T.}.}.[.A.^.`.'.I.I.'.I.U.v.Y.Y.Y.Y.Y.Y./._.!.~.{.}.|.}.}.T.",
"k.x.T.}.}.}.|.|.|.}.}.|.}.}.}.T.}.}.}.}.}.}.|.|.|.}.}.|.}.}.}.T.",
"k.x.T.}.}.|.|.|.}.}.|.}.}.}.}.T.}.}.}.}.}.|.|.|.}.}.|.}.}.}.}.T.",
"k.x.T.}.|.|.|.}.}.|.}.}.}.}.}.T.}.}.}.}.|.|.|.}.}.|.}.}.}.}.}.T.",
"k.x.T.|.|.|.}.}.|.}.}.}.}.}.}.T.}.}.}.|.|.|.}.}.|.}.}.}.}.}.}.T.",
"k.x.}.|.|.}.}.|.}.}.}.}.}.}.}.T.}.}.|.|.|.}.}.|.}.}.}.}.}.}.}.T.",
"k.T.}.|.}.}.|.}.}.}.}.}.}.}.}.T.}.|.|.|.}.}.|.}.}.}.}.}.}.}.}.T.",
"k.T.}.}.}.|.}.}.}.}.}.}.}.}.}.T.}.|.|.}.}.|.}.}.}.}.}.}.}.}.}.T.",
"k.T.T.}.|.}.}.}.}.}.}.}.}.}.}.T.}.|.}.}.|.}.}.}.}.}.}.}.}.}.}.T.",
"k.x.T.|.}.}.}.}.}.}.}.}.}.|.}.T.}.}.}.|.}.}.}.}.}.}.}.}.}.|.}.T.",
"k.x.T.}.}.}.}.}.}.}.}.}.}.}.}.T.}.}.}.}.}.}.}.}.}.}.}.}.}.}.}.T.",
"; k.x.x.x.x.x.x.x.x.x.x.x.x.x.x.x.x.x.x.x.x.x.x.x.x.x.x.x.x.x.x."
};
