/* XPM */
static char *result[] = {
/* columns rows colors chars-per-pixel */
"32 32 109 2 ",
"   c black",
".  c #010101",
"X  c #030100",
"o  c gray1",
"O  c #060302",
"+  c #060503",
"@  c gray2",
"#  c #060606",
"$  c #0E0600",
"%  c #090909",
"&  c #0B0B0B",
"*  c #0E0A08",
"=  c #0E0E0E",
"-  c #130801",
";  c #14110F",
":  c #19120C",
">  c #0C1313",
",  c #021B1E",
"<  c #0D1C1D",
"1  c #111010",
"2  c #121313",
"3  c #171511",
"4  c #161616",
"5  c #1C1717",
"6  c #151A1B",
"7  c gray10",
"8  c #1D1D1D",
"9  c #330202",
"0  c #3A0000",
"q  c #320C0C",
"w  c #251106",
"e  c #241514",
"r  c #371F18",
"t  c #292418",
"y  c #061F22",
"u  c #0E2122",
"i  c #062529",
"p  c #162B2E",
"a  c #0B363A",
"s  c #232323",
"d  c #282323",
"f  c #2B2B26",
"g  c #312323",
"h  c #312F27",
"j  c #29352D",
"k  c #2A3B36",
"l  c gray19",
"z  c #373737",
"x  c #430000",
"c  c #530000",
"v  c #5C0000",
"b  c #5F0000",
"n  c #5C0202",
"m  c #5C0505",
"M  c #620000",
"N  c #660000",
"B  c #620704",
"V  c #690000",
"C  c #670909",
"Z  c #700000",
"A  c #6C1509",
"S  c #512202",
"D  c #58291C",
"F  c #612901",
"G  c #692315",
"H  c #442B20",
"J  c #583A27",
"K  c #683222",
"L  c gray29",
"P  c #4A4F52",
"I  c #557743",
"U  c #5C7172",
"Y  c #616162",
"T  c #850000",
"R  c #8F0000",
"E  c #880E07",
"W  c #990000",
"Q  c #9A0000",
"!  c #990200",
"~  c #990302",
"^  c #9E0000",
"/  c #990502",
"(  c #81160F",
")  c #A60100",
"_  c #B10000",
"`  c #81312B",
"'  c #C60000",
"]  c #C60200",
"[  c #C60904",
"{  c #C60C09",
"}  c red",
"|  c #DF6829",
" . c #C95E4B",
".. c #7DAA65",
"X. c #FF9B72",
"o. c #098595",
"O. c #158595",
"+. c #0C97A8",
"@. c #1C97A8",
"#. c #0BBCD3",
"$. c #94A4A5",
"%. c #FFDF86",
"&. c #ABC3C7",
"*. c #B1EAFF",
"=. c #CBDADA",
"-. c #DFE7E8",
";. c #FFFFEA",
":. c #EBF1F2",
">. c white",
/* pixels */
"$.$.$.$.$.$.$.$.$.$.$.$.$.$.$.$.$.$.$.$.$.$.$.$.$.$.$.$.$.$.$.$.",
"$.=.=.=.&.&.&.&.&.&.=.=.=.&.&.&.&.=.=.=.&.&.&.&.&.&.=.=.=.&.&.&.",
"$.=.-.-.=.=.=.=.=.-.-.-.=.0 x M N N -.=.=.=.=.=.=.-.-.-.=.=.-.=.",
"$.=.-.-.-.-.-.-.:.:.:.-.0 v N W W W Z Z -.-.-.-.:.:.:.-.-.:.-.=.",
"$.&.=.-.-.-.-.:.:.:.-.0 v Z W ' ' T Q } T -.-.:.:.:.-.-.:.-.-.=.",
"$.&.=.-.-.-.:.:.:.-.-.x N W ' ' R W ' _ } Z :.:.:.-.-.:.-.-.-.=.",
"$.&.=.-.-.:.:.:.-.-.0 v W ' ' ' W ~ E / ' Z :.:.-.-.:.-.-.-.-.=.",
"$.&.=.-.:.:.:.-.-.:.x V ^ ' ) W M A | A ! V :.-.-.:.-.-.-.-.-.=.",
"$.&.=.:.:.:.-.-.:.-.M W ' ' W C r H X.G ] Z -.-.:.-.-.-.-.-.-.=.",
"$.&.-.:.:.-.-.:.-.-.N W ' ) ~ ` *.I %.K ! V -.:.-.-.-.-.-.-.-.=.",
"$.=.-.:.-.-.:.-.-.-.N W ' ' E  .>...;.K ] Z :.-.-.-.-.-.-.-.-.=.",
"$.=.-.-.-.:.-.-.-.-.-.c W ' ( X.%.%.;.K ! N -.-.-.-.-.-.-.-.-.=.",
"$.=.=.-.:.-.-.-.-.-.-.-.V W B K X.X.` { Z -.-.-.-.-.-.-.-.-.-.=.",
"$.&.=.:.-.-.-.-.-.-.-.-.x v m w J D [ Q V -.-.-.-.-.-.-.-.:.-.=.",
"$.&.=.-.-.-.-.-.-.-.-.O 9 m g t %.r M W N -.-.-.-.-.-.-.-.-.-.=.",
"U $.&.&.&.&.&.&.&.&.&.+ 5 q d l j e n b &.&.&.&.&.&.&.&.&.&.&.&.",
"$.&.=.-.-.-.-.-.-.-.-.@ s ; l u O.Y e v -.-.-.-.-.-.-.-.-.-.-.=.",
"$.=.=.:.-.-.-.-.-.-.:.. % 4 s 6 Y O.< :.-.-.-.-.-.-.:.:.:.-.-.=.",
"$.=.-.-.-.-.-.-.-.:.:.  @ s s 8 Y #., -.-.-.-.-.-.:.:.:.-.-.-.=.",
"$.=.-.-.-.-.-.-.:.:.:.  . & s z 6 , -.-.-.-.-.-.:.:.:.-.-.:.-.=.",
"$.&.=.-.-.-.-.:.:.:.-.-.. # 4 s h t -.-.-.-.-.:.:.:.-.-.:.-.-.=.",
"$.&.=.-.-.-.:.:.:.-.-.:.o 4 & f ;.%.t -.-.-.:.:.:.-.-.:.-.-.-.=.",
"$.&.=.-.-.:.:.:.-.-.:.-.% 4 4 j %.%.t -.-.:.:.:.-.-.:.-.-.-.-.=.",
"$.&.=.-.:.:.:.-.-.:.-.@ 4 l < o.k h * -.:.:.:.-.-.:.-.-.-.-.-.=.",
"$.&.=.:.:.:.-.-.:.-.-.# s = 4 i o.L & :.:.:.-.-.:.-.-.-.-.-.-.=.",
"$.&.-.:.:.-.-.:.-.-.-.& s & 4 y o.L = :.:.-.-.:.-.-.-.-.-.-.-.=.",
"$.=.-.:.-.-.:.-.-.-.@ 4 l 2 s i +.P 7 :.-.-.:.-.-.-.-.-.-.-.-.=.",
"$.=.-.-.-.:.-.-.-.-.% s l 8 z a @.Y L & -.:.-.-.-.-.-.-.-.-.-.=.",
"$.=.=.-.:.-.-.-.-.@ 4 l 2 s p +.Y L L & :.-.-.-.-.-.-.-.-.-.-.=.",
"$.&.=.:.-.-.-.-.-.# l & o 1 Y #.p 3 : - -.-.-.-.-.-.-.-.-.:.-.=.",
"$.&.=.-.-.-.-.-.-.-.# -.  @ > , % S S F $ -.-.-.-.-.-.-.-.-.-.=.",
"U $.&.&.&.&.&.&.&.&.&.&.&.&.    X $ $ $ X &.&.&.&.&.&.&.&.&.&.&."
};
