/* XPM */
static char *result[] = {
/* columns rows colors chars-per-pixel */
"32 32 130 2 ",
"   c black",
".  c #010101",
"X  c #030100",
"o  c gray1",
"O  c #060302",
"+  c #060503",
"@  c #000505",
"#  c gray2",
"$  c #060606",
"%  c #0B0300",
"&  c #0E0600",
"*  c #0B0505",
"=  c #0B0804",
"-  c #090909",
";  c #0B0B0B",
":  c #0A0F0F",
">  c #0E0E0E",
",  c #120202",
"<  c #130801",
"1  c #150907",
"2  c #051415",
"3  c #0C1313",
"4  c #001619",
"5  c #0A1719",
"6  c #021B1E",
"7  c #121313",
"8  c #111617",
"9  c #161616",
"0  c #1F1B11",
"q  c #171E1F",
"w  c gray10",
"e  c #1D1D1D",
"r  c #230606",
"t  c #330202",
"y  c #3A0000",
"u  c #320C0C",
"i  c #241514",
"p  c #371F18",
"a  c #212416",
"s  c #292418",
"d  c #061F22",
"f  c #0E2122",
"g  c #062529",
"h  c #132527",
"j  c #162B2E",
"k  c #042E33",
"l  c #232323",
"z  c #282721",
"x  c #2B2B26",
"c  c #312F27",
"v  c #29352D",
"b  c #34312F",
"n  c #3B362A",
"m  c gray19",
"M  c #303334",
"N  c #373737",
"B  c #30393C",
"V  c #430000",
"C  c #530000",
"Z  c #5C0000",
"A  c #5F0000",
"S  c #5C0505",
"D  c #5C0704",
"F  c #620000",
"G  c #660000",
"H  c #690000",
"J  c #700000",
"K  c #7E0000",
"L  c #730908",
"P  c #512202",
"I  c #482116",
"U  c #58291C",
"Y  c #612901",
"T  c #692315",
"R  c #44392F",
"E  c #683222",
"W  c #4C6A3E",
"Q  c #304043",
"!  c #394143",
"~  c #0E6470",
"^  c #256470",
"/  c gray29",
"(  c #4A4F52",
")  c #4A565B",
"_  c #496065",
"`  c #5C7172",
"'  c #616162",
"]  c #63696A",
"[  c #6C7072",
"{  c #850000",
"}  c #8F0000",
"|  c #990000",
" . c #9A0000",
".. c #9E0000",
"X. c #9A0805",
"o. c #991007",
"O. c #891E15",
"+. c #A60100",
"@. c #B10000",
"#. c #B7170A",
"$. c #833700",
"%. c #AB2018",
"&. c #81312B",
"*. c #C60000",
"=. c #C60402",
"-. c #C60904",
";. c #D40000",
":. c red",
">. c #A7463C",
",. c #DF6829",
"<. c #C86C40",
"1. c #7DAA65",
"2. c #FF9B72",
"3. c #098595",
"4. c #158595",
"5. c #2A8595",
"6. c #0C97A8",
"7. c #1C97A8",
"8. c #0BBCD3",
"9. c #2DBCD3",
"0. c #838382",
"q. c #94A4A5",
"w. c #FFDF86",
"e. c #ABC3C7",
"r. c #B1EAFF",
"t. c #CBDADA",
"y. c #DFE7E8",
"u. c #FFFFEA",
"i. c #EBF1F2",
"p. c white",
/* pixels */
"q.q.q.q.q.q.q.q.q.q.q.q.q.q.q.q.q.q.q.q.q.q.q.q.q.q.q.q.q.q.q.q.",
"q.t.t.t.e.e.e.e.e.e.t.t.t.e.e.e.e.t.t.t.e.e.e.e.e.e.t.t.t.e.e.e.",
"q.t.y.y.t.t.t.t.t.y.y.y.t.y V A F y.y.t.t.t.t.t.t.y.y.y.t.t.y.t.",
"q.t.y.y.y.y.y.y.i.i.i.y.V Z H | K J H F y.y.y.y.i.i.i.y.y.i.y.t.",
"q.e.t.y.y.y.y.i.i.i.y.V F | | *.} *.| K G y.y.i.i.i.y.y.i.y.y.t.",
"q.e.t.y.y.y.i.i.i.y.y Z | +.*.} *.:.*...K F i.i.i.y.y.i.y.y.y.t.",
"q.e.t.y.y.i.i.i.y.y.y H  .*.-.+.=.;.:.*.{ F i.i.y.y.i.y.y.y.y.t.",
"q.e.t.y.i.i.i.y.y.i.V | *.| o.,.#.=.:.*.} G i.y.y.i.y.y.y.y.y.t.",
"q.e.t.i.i.i.y.y.i.y.V  .L I I ,.,.#.*.*.*.J y.y.i.y.y.y.y.y.y.t.",
"q.e.y.i.i.y.y.i.y.y.C *.&.r.W 2.2.%.*.@.*.J y.i.y.y.y.y.y.y.y.t.",
"q.t.y.i.y.y.i.y.y.y.V K &.p.1.u.u.>.X.*.*.J i.y.y.y.y.y.y.y.y.t.",
"q.t.y.y.y.i.y.y.y.y.Z Z T 2.w.u.u.w.O.*.*.J y.y.y.y.y.y.y.y.y.t.",
"q.t.t.y.i.y.y.y.y.y.y.Z V E 2.w.w.2.O.*.{ G y.y.y.y.y.y.y.y.y.t.",
"q.e.t.i.y.y.y.y.y.y.y., t 1 U <.<.E D K G y.y.y.y.y.y.y.y.i.y.t.",
"q.e.t.y.y.y.y.y.y.y.o 9 * + s w.2.p r Z Z , y.y.y.y.y.y.y.y.y.t.",
"` q.e.e.e.e.e.e.e.e.# 9 9 5 m n R / w t Z , e.e.e.e.e.e.e.e.e.e.",
"q.e.t.y.y.y.y.y.y.y.; l 5 ~ / ' ' ' ^ u Z , y.y.y.y.y.y.y.y.y.t.",
"q.t.t.i.y.y.y.y.y.$ l l 3 M ( 5.9.0./ i S 1 y.y.y.y.i.i.i.y.y.t.",
"q.t.y.y.y.y.y.y.y.- N l > m ) 7.0.[ ' 9 l N - y.y.i.i.i.y.y.y.t.",
"q.t.y.y.y.y.y.y.i.; x w > m ^ _ ] 0./ 7 9 l - y.i.i.i.y.y.i.y.t.",
"q.e.t.y.y.y.y.i.i.z u.b 5 m ( ' ] ' / c c l $ i.i.i.y.y.i.y.y.t.",
"q.e.t.y.y.y.i.i.i.s w.v ~ Q ( 4.7.( R w.u.x . i.i.y.y.i.y.y.y.t.",
"q.e.t.y.y.i.i.i.y.y.0 6 ~ ! ~ g k 6.! w.w.s i.i.y.y.i.y.y.y.y.t.",
"q.e.t.y.i.i.i.y.y.i.y.4 3./ q 9 9 j 0.! s = i.y.y.i.y.y.y.y.y.t.",
"q.e.t.i.i.i.y.y.i.y.y.6 3./ 7 9 l e 0.7.6 i.y.y.i.y.y.y.y.y.y.t.",
"q.e.y.i.i.y.y.i.y.y.y.6 7.( 8 l N q _ 8.d y.y.i.y.y.y.y.y.y.y.t.",
"q.t.y.i.y.y.i.y.y.y.y.: ( 6.d l N j 8.] 8 y.i.y.y.y.y.y.y.y.y.t.",
"q.t.y.y.y.i.y.y.y.y.y.- B 6.6 $ $ g 8.( ; i.y.y.y.y.y.y.y.y.y.t.",
"q.t.t.y.i.y.y.y.y.y.y.O f 6.4     6 8.h + y.y.y.y.y.y.y.y.y.y.t.",
"q.e.t.i.y.y.y.y.y.y.y.% P 2 @   X ; a Y < y.y.y.y.y.y.y.y.i.y.t.",
"q.e.t.y.y.y.y.y.y.y.y.y.% X     % P Y $.< y.y.y.y.y.y.y.y.y.y.t.",
"` q.e.e.e.e.e.e.e.e.e.e.e.e.e.e.X & < < e.e.e.e.e.e.e.e.e.e.e.e."
};
