/* XPM */
static char *result[] = {
/* columns rows colors chars-per-pixel */
"32 32 91 1 ",
"  c #010101",
". c gray1",
"X c #050200",
"o c #000505",
"O c gray2",
"+ c #060606",
"@ c #0B0300",
"# c #0E0600",
"$ c #000708",
"% c #030808",
"& c #040A0B",
"* c #070B0B",
"= c #090909",
"- c #0B0B0B",
"; c #0E0A08",
": c #0A0F0F",
"> c #0E0E0E",
", c #120202",
"< c #150907",
"1 c #010F11",
"2 c #051415",
"3 c #0C1313",
"4 c #001619",
"5 c #0A1719",
"6 c #0D1C1D",
"7 c #121313",
"8 c #161616",
"9 c #1C1717",
"0 c #1F1B11",
"q c #151A1B",
"w c #171E1F",
"e c gray10",
"r c #230606",
"t c #330202",
"y c #310706",
"u c #3A0000",
"i c #320C0C",
"p c #341515",
"a c #292418",
"s c #132527",
"d c #162B2E",
"f c #232323",
"g c #232526",
"h c gray14",
"j c #282323",
"k c #282721",
"l c #2B2B26",
"z c #232829",
"x c #232A2D",
"c c #34312F",
"v c #233032",
"b c #2A3B36",
"n c #23383C",
"m c gray19",
"M c #303334",
"N c #373737",
"B c #30393C",
"V c #430000",
"C c #420B09",
"Z c #530000",
"A c #5C0000",
"S c #5F0000",
"D c #5C0202",
"F c #5C0505",
"G c #5C0908",
"H c #5D1818",
"J c #620000",
"K c #660000",
"L c #690000",
"P c #700000",
"I c #7E0000",
"U c #612901",
"Y c #234145",
"T c #304043",
"R c #34494D",
"E c #0E6470",
"W c #8F0000",
"Q c #990000",
"! c #9A0000",
"~ c #9E0000",
"^ c #A60100",
"/ c #B10000",
"( c #C60000",
") c #CE0000",
"_ c #D40000",
"` c red",
"' c #098595",
"] c #158595",
"[ c #FFDF86",
"{ c #FFFFEA",
"} c None",
/* pixels */
"}}}}}}}}}}}}}}}}}}}}}}}}}}}}}}}}",
"}}}}}}}}}}}}}}}}}}}}}}}}}}}}}}}}",
"}}}}}}}}}}}}}uVSKKK}}}}}}}}}}}}}",
"}}}}}}}}}}}}VALQWQQP}}}}}}}}}}}}",
"}}}}}}}}}}}VJQ~((((QP}}}}}}}}}}}",
"}}}}}}}}}}uAQ^(()`_(QL}}}}}}}}}}",
"}}}}}}}}}}uL!((/(_`)(P}}}}}}}}}}",
"}}}}}}}}}}VQ(^^(()`)(P}}}}}}}}}}",
"}}}}}}}}}}V!~~~/(((((P}}}}}}}}}}",
"}}}}}}}}}}Z(Q~((((^^(L}}}}}}}}}}",
"}}}}}}}}}}uIPQ/(((^Q(Z}}}}}}}}}}",
"}}}}}}}}}}uALQ(((((~(V}}}}}}}}}}",
"}}}}}}}}}}}uAQ(^~^((I}}}}}}}}}}}",
"}}}}}}}}}}},uLQQQQQ(P}}}}}}}}}}}",
"}}}}}}}}}}.8yAPQPAV(A,}}}}}}}}}}",
"}}}}}}}}}}O89tSQSFrut@}}}}}}}}}}",
"}}}}}}}}}}+f>9FDCjeyt@}}}}}}}}}}",
"}}}}}}}}}}+f5EpGcvE7t<}}}}}}}}}}",
"}}}}}}}}}}+f4ExHcn'2iN=}}}}}}}}}",
"}}}}}}}}}}O8*sEBTEd*8f+}}}}}}}}}",
"}}}}}}}}}}}%2wY]EYw5qh-}}}}}}}}}",
"}}}}}}}}}}}&En]RT]Y'b{k}}}}}}}}}",
"}}}}}}}}}}}$dETMMTEdl[a}}}}}}}}}",
"}}}}}}}}}}}Os]TMMT]s;0}}}}}}}}}}",
"}}}}}}}}}}}+fTEBBETf+}}}}}}}}}}}",
"}}}}}}}}}}}+fT]TB]Tf+}}}}}}}}}}}",
"}}}}}}}}}}}=mT]vn]Rm=}}}}}}}}}}}",
"}}}}}}}}}}}+zEnggY]x+}}}}}}}}}}}",
"}}}}}}}}}}}Os'dfhBEz+}}}}}}}}}}}",
"}}}}}}}}}}} 4's8fx'6X}}}}}}}}}}}",
"}}}}}}}}}}}}o1%=f:3U#}}}}}}}}}}}",
"}}}}}}}}}}}}}}}}O X@}}}}}}}}}}}}"
};
