/* XPM */
static char *result[] = {
/* columns rows colors chars-per-pixel */
"32 32 96 2 ",
"   c #010101",
".  c gray1",
"X  c #050200",
"o  c #000505",
"O  c gray2",
"+  c #060606",
"@  c #0B0300",
"#  c #0E0600",
"$  c #000708",
"%  c #030808",
"&  c #040A0B",
"*  c #070B0B",
"=  c #090909",
"-  c #0B0B0B",
";  c #0E0A08",
":  c #0A0F0F",
">  c #0E0E0E",
",  c #120202",
"<  c #150907",
"1  c #010F11",
"2  c #051415",
"3  c #0C1313",
"4  c #001619",
"5  c #0A1719",
"6  c #0D1C1D",
"7  c #121313",
"8  c #161616",
"9  c #1C1717",
"0  c #1F1B11",
"q  c #151A1B",
"w  c #171E1F",
"e  c gray10",
"r  c #230606",
"t  c #330202",
"y  c #310706",
"u  c #3A0000",
"i  c #320C0C",
"p  c #341515",
"a  c #292418",
"s  c #132527",
"d  c #162B2E",
"f  c #232323",
"g  c #232526",
"h  c gray14",
"j  c #282323",
"k  c #282721",
"l  c #2B2B26",
"z  c #232829",
"x  c #232A2D",
"c  c #34312F",
"v  c #233032",
"b  c #2A3B36",
"n  c #23383C",
"m  c gray19",
"M  c #303334",
"N  c #373737",
"B  c #30393C",
"V  c #430000",
"C  c #420B09",
"Z  c #530000",
"A  c #5C0000",
"S  c #5F0000",
"D  c #5C0202",
"F  c #5C0505",
"G  c #5C0908",
"H  c #5D1818",
"J  c #620000",
"K  c #660000",
"L  c #690000",
"P  c #700000",
"I  c #7E0000",
"U  c #612901",
"Y  c #234145",
"T  c #304043",
"R  c #34494D",
"E  c #0E6470",
"W  c #5C7172",
"Q  c #8F0000",
"!  c #990000",
"~  c #9A0000",
"^  c #9E0000",
"/  c #A60100",
"(  c #B10000",
")  c #C60000",
"_  c #CE0000",
"`  c #D40000",
"'  c red",
"]  c #098595",
"[  c #158595",
"{  c #94A4A5",
"}  c #FFDF86",
"|  c #ABC3C7",
" . c #CBDADA",
".. c #DFE7E8",
"X. c #FFFFEA",
"o. c #EBF1F2",
/* pixels */
"{ { { { { { { { { { { { { { { { { { { { { { { { { { { { { { { { ",
"{  . . .| | | | | |  . . .| | | |  . . .| | | | | |  . . .| | | ",
"{  ..... . . . . ....... .u V S K K K  . . . . . ....... . ... .",
"{  .............o.o.o...V A L ! Q ! ! P ........o.o.o.....o... .",
"{ |  .........o.o.o...V J ! ^ ) ) ) ) ! P ....o.o.o.....o..... .",
"{ |  .......o.o.o...u A ! / ) ) _ ' ` ) ! L o.o.o.....o....... .",
"{ |  .....o.o.o.....u L ~ ) ) ( ) ` ' _ ) P o.o.....o......... .",
"{ |  ...o.o.o.....o.V ! ) / / ) ) _ ' _ ) P o.....o........... .",
"{ |  .o.o.o.....o...V ~ ^ ^ ^ ( ) ) ) ) ) P ....o............. .",
"{ | ..o.o.....o.....Z ) ! ^ ) ) ) ) / / ) L ..o............... .",
"{  ...o.....o.......u I P ! ( ) ) ) / ! ) Z o................. .",
"{  .......o.........u A L ! ) ) ) ) ) ^ ) V .................. .",
"{  . ...o.............u A ! ) / ^ / ) ) I .................... .",
"{ |  .o..............., u L ! ! ! ! ! ) P ................o... .",
"{ |  ................ 8 y A P ! P A V ) A , .................. .",
"W { | | | | | | | | O 8 9 t S ! S F r u t @ | | | | | | | | | | ",
"{ |  ...............+ f > 9 F D C j e y t @ .................. .",
"{  . .o.............+ f 5 E p G c v E 7 t < ........o.o.o..... .",
"{  ...............o.+ f 4 E x H c n ] 2 i N = ....o.o.o....... .",
"{  .............o.o.O 8 * s E B T E d * 8 f + ..o.o.o.....o... .",
"{ |  .........o.o.o...% 2 w Y [ E Y w 5 q h - o.o.o.....o..... .",
"{ |  .......o.o.o.....& E n [ R T [ Y ] b X.k o.o.....o....... .",
"{ |  .....o.o.o.....o.$ d E T M M T E d l } a o.....o......... .",
"{ |  ...o.o.o.....o...O s [ T M M T [ s ; 0 o.....o........... .",
"{ |  .o.o.o.....o.....+ f T E B B E T f + o.....o............. .",
"{ | ..o.o.....o.......+ f T [ T B [ T f + ....o............... .",
"{  ...o.....o.........= m T [ v n [ R m = ..o................. .",
"{  .......o...........+ z E n g g Y [ x + o................... .",
"{  . ...o.............O s ] d f h B E z + .................... .",
"{ |  .o...............  4 ] s 8 f x ] 6 X ................o... .",
"{ |  ...................o 1 % = f : 3 U # .................... .",
"W { | | | | | | | | | | | | | | O   X @ | | | | | | | | | | | | "
};
