/* XPM */
static char *result[] = {
/* columns rows colors chars-per-pixel */
"32 32 104 2 ",
"   c black",
".  c #010101",
"X  c #030100",
"o  c gray1",
"O  c #060302",
"+  c #060503",
"@  c gray2",
"#  c #060606",
"$  c #0E0600",
"%  c #090909",
"&  c #0B0B0B",
"*  c #0E0A08",
"=  c #0E0E0E",
"-  c #130801",
";  c #14110F",
":  c #19120C",
">  c #0C1313",
",  c #021B1E",
"<  c #0D1C1D",
"1  c #111010",
"2  c #121313",
"3  c #171511",
"4  c #161616",
"5  c #1C1717",
"6  c #151A1B",
"7  c gray10",
"8  c #1D1D1D",
"9  c #330202",
"0  c #3A0000",
"q  c #320C0C",
"w  c #251106",
"e  c #241514",
"r  c #371F18",
"t  c #292418",
"y  c #061F22",
"u  c #0E2122",
"i  c #062529",
"p  c #162B2E",
"a  c #0B363A",
"s  c #232323",
"d  c #282323",
"f  c #2B2B26",
"g  c #312323",
"h  c #312F27",
"j  c #29352D",
"k  c #2A3B36",
"l  c gray19",
"z  c #373737",
"x  c #430000",
"c  c #530000",
"v  c #5C0000",
"b  c #5F0000",
"n  c #5C0202",
"m  c #5C0505",
"M  c #620000",
"N  c #660000",
"B  c #620704",
"V  c #690000",
"C  c #670909",
"Z  c #700000",
"A  c #6C1509",
"S  c #512202",
"D  c #58291C",
"F  c #612901",
"G  c #692315",
"H  c #442B20",
"J  c #583A27",
"K  c #683222",
"L  c gray29",
"P  c #4A4F52",
"I  c #557743",
"U  c #616162",
"Y  c #850000",
"T  c #8F0000",
"R  c #880E07",
"E  c #990000",
"W  c #9A0000",
"Q  c #990200",
"!  c #990302",
"~  c #9E0000",
"^  c #990502",
"/  c #81160F",
"(  c #A60100",
")  c #B10000",
"_  c #81312B",
"`  c #C60000",
"'  c #C60200",
"]  c #C60904",
"[  c #C60C09",
"{  c red",
"}  c #DF6829",
"|  c #C95E4B",
" . c #7DAA65",
".. c #FF9B72",
"X. c #098595",
"o. c #158595",
"O. c #0C97A8",
"+. c #1C97A8",
"@. c #0BBCD3",
"#. c #FFDF86",
"$. c #B1EAFF",
"%. c #FFFFEA",
"&. c white",
"*. c None",
/* pixels */
"*.*.*.*.*.*.*.*.*.*.*.*.*.*.*.*.*.*.*.*.*.*.*.*.*.*.*.*.*.*.*.*.",
"*.*.*.*.*.*.*.*.*.*.*.*.*.*.*.*.*.*.*.*.*.*.*.*.*.*.*.*.*.*.*.*.",
"*.*.*.*.*.*.*.*.*.*.*.*.*.0 x M N N *.*.*.*.*.*.*.*.*.*.*.*.*.*.",
"*.*.*.*.*.*.*.*.*.*.*.*.0 v N E E E Z Z *.*.*.*.*.*.*.*.*.*.*.*.",
"*.*.*.*.*.*.*.*.*.*.*.0 v Z E ` ` Y W { Y *.*.*.*.*.*.*.*.*.*.*.",
"*.*.*.*.*.*.*.*.*.*.*.x N E ` ` T E ` ) { Z *.*.*.*.*.*.*.*.*.*.",
"*.*.*.*.*.*.*.*.*.*.0 v E ` ` ` E ! R ^ ` Z *.*.*.*.*.*.*.*.*.*.",
"*.*.*.*.*.*.*.*.*.*.x V ~ ` ( E M A } A Q V *.*.*.*.*.*.*.*.*.*.",
"*.*.*.*.*.*.*.*.*.*.M E ` ` E C r H ..G ' Z *.*.*.*.*.*.*.*.*.*.",
"*.*.*.*.*.*.*.*.*.*.N E ` ( ! _ $.I #.K Q V *.*.*.*.*.*.*.*.*.*.",
"*.*.*.*.*.*.*.*.*.*.N E ` ` R | &. .%.K ' Z *.*.*.*.*.*.*.*.*.*.",
"*.*.*.*.*.*.*.*.*.*.*.c E ` / ..#.#.%.K Q N *.*.*.*.*.*.*.*.*.*.",
"*.*.*.*.*.*.*.*.*.*.*.*.V E B K ...._ [ Z *.*.*.*.*.*.*.*.*.*.*.",
"*.*.*.*.*.*.*.*.*.*.*.*.x v m w J D ] W V *.*.*.*.*.*.*.*.*.*.*.",
"*.*.*.*.*.*.*.*.*.*.*.O 9 m g t #.r M E N *.*.*.*.*.*.*.*.*.*.*.",
"*.*.*.*.*.*.*.*.*.*.*.+ 5 q d l j e n b *.*.*.*.*.*.*.*.*.*.*.*.",
"*.*.*.*.*.*.*.*.*.*.*.@ s ; l u o.U e v *.*.*.*.*.*.*.*.*.*.*.*.",
"*.*.*.*.*.*.*.*.*.*.*.. % 4 s 6 U o.< *.*.*.*.*.*.*.*.*.*.*.*.*.",
"*.*.*.*.*.*.*.*.*.*.*.  @ s s 8 U @., *.*.*.*.*.*.*.*.*.*.*.*.*.",
"*.*.*.*.*.*.*.*.*.*.*.  . & s z 6 , *.*.*.*.*.*.*.*.*.*.*.*.*.*.",
"*.*.*.*.*.*.*.*.*.*.*.*.. # 4 s h t *.*.*.*.*.*.*.*.*.*.*.*.*.*.",
"*.*.*.*.*.*.*.*.*.*.*.*.o 4 & f %.#.t *.*.*.*.*.*.*.*.*.*.*.*.*.",
"*.*.*.*.*.*.*.*.*.*.*.*.% 4 4 j #.#.t *.*.*.*.*.*.*.*.*.*.*.*.*.",
"*.*.*.*.*.*.*.*.*.*.*.@ 4 l < X.k h * *.*.*.*.*.*.*.*.*.*.*.*.*.",
"*.*.*.*.*.*.*.*.*.*.*.# s = 4 i X.L & *.*.*.*.*.*.*.*.*.*.*.*.*.",
"*.*.*.*.*.*.*.*.*.*.*.& s & 4 y X.L = *.*.*.*.*.*.*.*.*.*.*.*.*.",
"*.*.*.*.*.*.*.*.*.*.@ 4 l 2 s i O.P 7 *.*.*.*.*.*.*.*.*.*.*.*.*.",
"*.*.*.*.*.*.*.*.*.*.% s l 8 z a +.U L & *.*.*.*.*.*.*.*.*.*.*.*.",
"*.*.*.*.*.*.*.*.*.@ 4 l 2 s p O.U L L & *.*.*.*.*.*.*.*.*.*.*.*.",
"*.*.*.*.*.*.*.*.*.# l & o 1 U @.p 3 : - *.*.*.*.*.*.*.*.*.*.*.*.",
"*.*.*.*.*.*.*.*.*.*.# *.  @ > , % S S F $ *.*.*.*.*.*.*.*.*.*.*.",
"*.*.*.*.*.*.*.*.*.*.*.*.*.*.    X $ $ $ X *.*.*.*.*.*.*.*.*.*.*."
};
