/* XPM */
static char *result[] = {
/* columns rows colors chars-per-pixel */
"32 32 104 2 ",
"   c black",
".  c #010101",
"X  c #030100",
"o  c gray1",
"O  c #050200",
"+  c gray2",
"@  c #060606",
"#  c #0B0300",
"$  c #0E0600",
"%  c #090909",
"&  c #0B0B0B",
"*  c #0E0A08",
"=  c #0E0E0E",
"-  c #130801",
";  c #14110F",
":  c #19120C",
">  c #0C1313",
",  c #0A1719",
"<  c #021B1E",
"1  c #0D1C1D",
"2  c #111010",
"3  c #121313",
"4  c #161616",
"5  c #1C1717",
"6  c #151A1B",
"7  c gray10",
"8  c #1D1D1D",
"9  c #330202",
"0  c #3A0000",
"q  c #320C0C",
"w  c #251106",
"e  c #241514",
"r  c #371F18",
"t  c #292418",
"y  c #312C1F",
"u  c #061F22",
"i  c #0E2122",
"p  c #062529",
"a  c #162B2E",
"s  c #0B363A",
"d  c #232323",
"f  c #282323",
"g  c #2B2B26",
"h  c #312323",
"j  c #312F27",
"k  c #29352D",
"l  c gray19",
"z  c #373737",
"x  c #430000",
"c  c #530000",
"v  c #5C0000",
"b  c #5F0000",
"n  c #5C0505",
"m  c #620000",
"M  c #660000",
"N  c #620704",
"B  c #690000",
"V  c #670909",
"C  c #700000",
"Z  c #6C1509",
"A  c #512202",
"S  c #58291C",
"D  c #612901",
"F  c #692315",
"G  c #442B20",
"H  c #583A27",
"J  c #683222",
"K  c #304043",
"L  c gray29",
"P  c #4A4F52",
"I  c #557743",
"U  c #616162",
"Y  c #850000",
"T  c #8F0000",
"R  c #880E07",
"E  c #990000",
"W  c #9A0000",
"Q  c #990200",
"!  c #990302",
"~  c #9E0000",
"^  c #990502",
"/  c #81160F",
"(  c #A60100",
")  c #B10000",
"_  c #81312B",
"`  c #C60000",
"'  c #C60200",
"]  c #C60904",
"[  c #C60C09",
"{  c red",
"}  c #DF6829",
"|  c #C95E4B",
" . c #7DAA65",
".. c #FF9B72",
"X. c #098595",
"o. c #158595",
"O. c #0C97A8",
"+. c #1C97A8",
"@. c #0BBCD3",
"#. c #FFDF86",
"$. c #B1EAFF",
"%. c #FFFFEA",
"&. c white",
"*. c None",
/* pixels */
"*.*.*.*.*.*.*.*.*.*.*.*.*.*.*.*.*.*.*.*.*.*.*.*.*.*.*.*.*.*.*.*.",
"*.*.*.*.*.*.*.*.*.*.*.*.*.*.*.*.*.*.*.*.*.*.*.*.*.*.*.*.*.*.*.*.",
"*.*.*.*.*.*.*.*.*.*.*.*.*.*.M M m x 0 *.*.*.*.*.*.*.*.*.*.*.*.*.",
"*.*.*.*.*.*.*.*.*.*.*.*.C C E E E M v 0 *.*.*.*.*.*.*.*.*.*.*.*.",
"*.*.*.*.*.*.*.*.*.*.*.Y { W Y ` ` E C v 0 *.*.*.*.*.*.*.*.*.*.*.",
"*.*.*.*.*.*.*.*.*.*.C { ) ` E T ` ` E B x *.*.*.*.*.*.*.*.*.*.*.",
"*.*.*.*.*.*.*.*.*.*.C ` ^ R ! E ` ` ` E v 0 *.*.*.*.*.*.*.*.*.*.",
"*.*.*.*.*.*.*.*.*.*.B Q Z } Z m E ( ` ~ B x *.*.*.*.*.*.*.*.*.*.",
"*.*.*.*.*.*.*.*.*.*.C ' F ..G r V E ` ` E m *.*.*.*.*.*.*.*.*.*.",
"*.*.*.*.*.*.*.*.*.*.B Q J #.I $._ ! ( ` E M *.*.*.*.*.*.*.*.*.*.",
"*.*.*.*.*.*.*.*.*.*.C ' J %. .&.| R ` ` E M *.*.*.*.*.*.*.*.*.*.",
"*.*.*.*.*.*.*.*.*.*.B Q J %.#.#.../ ` E c *.*.*.*.*.*.*.*.*.*.*.",
"*.*.*.*.*.*.*.*.*.*.*.C [ _ ....J N E B *.*.*.*.*.*.*.*.*.*.*.*.",
"*.*.*.*.*.*.*.*.*.*.*.B Q ] S H w n v x *.*.*.*.*.*.*.*.*.*.*.*.",
"*.*.*.*.*.*.*.*.*.*.*.M E m r #.t h n 9 # *.*.*.*.*.*.*.*.*.*.*.",
"*.*.*.*.*.*.*.*.*.*.*.*.b n e k l f q 5 + *.*.*.*.*.*.*.*.*.*.*.",
"*.*.*.*.*.*.*.*.*.*.*.*.v e U o.i l ; d + *.*.*.*.*.*.*.*.*.*.*.",
"*.*.*.*.*.*.*.*.*.*.*.*.*., o.U 6 d 4 % . *.*.*.*.*.*.*.*.*.*.*.",
"*.*.*.*.*.*.*.*.*.*.*.*.*.< @.U 8 d d +   *.*.*.*.*.*.*.*.*.*.*.",
"*.*.*.*.*.*.*.*.*.*.*.*.*.*.< 6 z d & .   *.*.*.*.*.*.*.*.*.*.*.",
"*.*.*.*.*.*.*.*.*.*.*.*.*.*.t j d 4 @ . *.*.*.*.*.*.*.*.*.*.*.*.",
"*.*.*.*.*.*.*.*.*.*.*.*.*.t #.%.g & 4 o *.*.*.*.*.*.*.*.*.*.*.*.",
"*.*.*.*.*.*.*.*.*.*.*.*.*.t #.#.k 4 4 % *.*.*.*.*.*.*.*.*.*.*.*.",
"*.*.*.*.*.*.*.*.*.*.*.*.*.* y K X.1 l 4 + *.*.*.*.*.*.*.*.*.*.*.",
"*.*.*.*.*.*.*.*.*.*.*.*.*.& L X.p 4 = d @ *.*.*.*.*.*.*.*.*.*.*.",
"*.*.*.*.*.*.*.*.*.*.*.*.*.= L X.u 4 & d & *.*.*.*.*.*.*.*.*.*.*.",
"*.*.*.*.*.*.*.*.*.*.*.*.*.7 P O.p d 3 l 4 + *.*.*.*.*.*.*.*.*.*.",
"*.*.*.*.*.*.*.*.*.*.*.*.& L U +.s z 8 l d % *.*.*.*.*.*.*.*.*.*.",
"*.*.*.*.*.*.*.*.*.*.*.*.& L L U O.a d 3 l 4 + *.*.*.*.*.*.*.*.*.",
"*.*.*.*.*.*.*.*.*.*.*.*.- : : a @.U 2 o & l @ *.*.*.*.*.*.*.*.*.",
"*.*.*.*.*.*.*.*.*.*.*.$ D A A % < > +   *.@ *.*.*.*.*.*.*.*.*.*.",
"*.*.*.*.*.*.*.*.*.*.*.O $ $ $ X     *.*.*.*.*.*.*.*.*.*.*.*.*.*."
};
