/* XPM */
static char *result[] = {
/* columns rows colors chars-per-pixel */
"32 32 125 2 ",
"   c black",
".  c #010101",
"X  c #030100",
"o  c gray1",
"O  c #060302",
"+  c #060503",
"@  c #000505",
"#  c gray2",
"$  c #060606",
"%  c #0B0300",
"&  c #0E0600",
"*  c #0B0505",
"=  c #0B0804",
"-  c #090909",
";  c #0B0B0B",
":  c #0A0F0F",
">  c #0E0E0E",
",  c #120202",
"<  c #130801",
"1  c #150907",
"2  c #051415",
"3  c #0C1313",
"4  c #001619",
"5  c #0A1719",
"6  c #021B1E",
"7  c #121313",
"8  c #111617",
"9  c #161616",
"0  c #1F1B11",
"q  c #171E1F",
"w  c gray10",
"e  c #1D1D1D",
"r  c #230606",
"t  c #330202",
"y  c #3A0000",
"u  c #320C0C",
"i  c #241514",
"p  c #371F18",
"a  c #212416",
"s  c #292418",
"d  c #061F22",
"f  c #0E2122",
"g  c #062529",
"h  c #132527",
"j  c #162B2E",
"k  c #042E33",
"l  c #232323",
"z  c #282721",
"x  c #2B2B26",
"c  c #312F27",
"v  c #29352D",
"b  c #34312F",
"n  c #3B362A",
"m  c gray19",
"M  c #303334",
"N  c #373737",
"B  c #30393C",
"V  c #430000",
"C  c #530000",
"Z  c #5C0000",
"A  c #5F0000",
"S  c #5C0505",
"D  c #5C0704",
"F  c #620000",
"G  c #660000",
"H  c #690000",
"J  c #700000",
"K  c #7E0000",
"L  c #730908",
"P  c #512202",
"I  c #482116",
"U  c #58291C",
"Y  c #612901",
"T  c #692315",
"R  c #44392F",
"E  c #683222",
"W  c #4C6A3E",
"Q  c #304043",
"!  c #394143",
"~  c #0E6470",
"^  c #256470",
"/  c gray29",
"(  c #4A4F52",
")  c #4A565B",
"_  c #496065",
"`  c #616162",
"'  c #63696A",
"]  c #6C7072",
"[  c #850000",
"{  c #8F0000",
"}  c #990000",
"|  c #9A0000",
" . c #9E0000",
".. c #9A0805",
"X. c #991007",
"o. c #891E15",
"O. c #A60100",
"+. c #B10000",
"@. c #B7170A",
"#. c #833700",
"$. c #AB2018",
"%. c #81312B",
"&. c #C60000",
"*. c #C60402",
"=. c #C60904",
"-. c #D40000",
";. c red",
":. c #A7463C",
">. c #DF6829",
",. c #C86C40",
"<. c #7DAA65",
"1. c #FF9B72",
"2. c #098595",
"3. c #158595",
"4. c #2A8595",
"5. c #0C97A8",
"6. c #1C97A8",
"7. c #0BBCD3",
"8. c #2DBCD3",
"9. c #838382",
"0. c #FFDF86",
"q. c #B1EAFF",
"w. c #FFFFEA",
"e. c white",
"r. c None",
/* pixels */
"r.r.r.r.r.r.r.r.r.r.r.r.r.r.r.r.r.r.r.r.r.r.r.r.r.r.r.r.r.r.r.r.",
"r.r.r.r.r.r.r.r.r.r.r.r.r.r.r.r.r.r.r.r.r.r.r.r.r.r.r.r.r.r.r.r.",
"r.r.r.r.r.r.r.r.r.r.r.r.r.y V A F r.r.r.r.r.r.r.r.r.r.r.r.r.r.r.",
"r.r.r.r.r.r.r.r.r.r.r.r.V Z H } K J H F r.r.r.r.r.r.r.r.r.r.r.r.",
"r.r.r.r.r.r.r.r.r.r.r.V F } } &.{ &.} K G r.r.r.r.r.r.r.r.r.r.r.",
"r.r.r.r.r.r.r.r.r.r.y Z } O.&.{ &.;.&. .K F r.r.r.r.r.r.r.r.r.r.",
"r.r.r.r.r.r.r.r.r.r.y H | &.=.O.*.-.;.&.[ F r.r.r.r.r.r.r.r.r.r.",
"r.r.r.r.r.r.r.r.r.r.V } &.} X.>.@.*.;.&.{ G r.r.r.r.r.r.r.r.r.r.",
"r.r.r.r.r.r.r.r.r.r.V | L I I >.>.@.&.&.&.J r.r.r.r.r.r.r.r.r.r.",
"r.r.r.r.r.r.r.r.r.r.C &.%.q.W 1.1.$.&.+.&.J r.r.r.r.r.r.r.r.r.r.",
"r.r.r.r.r.r.r.r.r.r.V K %.e.<.w.w.:...&.&.J r.r.r.r.r.r.r.r.r.r.",
"r.r.r.r.r.r.r.r.r.r.Z Z T 1.0.w.w.0.o.&.&.J r.r.r.r.r.r.r.r.r.r.",
"r.r.r.r.r.r.r.r.r.r.r.Z V E 1.0.0.1.o.&.[ G r.r.r.r.r.r.r.r.r.r.",
"r.r.r.r.r.r.r.r.r.r.r., t 1 U ,.,.E D K G r.r.r.r.r.r.r.r.r.r.r.",
"r.r.r.r.r.r.r.r.r.r.o 9 * + s 0.1.p r Z Z , r.r.r.r.r.r.r.r.r.r.",
"r.r.r.r.r.r.r.r.r.r.# 9 9 5 m n R / w t Z , r.r.r.r.r.r.r.r.r.r.",
"r.r.r.r.r.r.r.r.r.r.; l 5 ~ / ` ` ` ^ u Z , r.r.r.r.r.r.r.r.r.r.",
"r.r.r.r.r.r.r.r.r.$ l l 3 M ( 4.8.9./ i S 1 r.r.r.r.r.r.r.r.r.r.",
"r.r.r.r.r.r.r.r.r.- N l > m ) 6.9.] ` 9 l N - r.r.r.r.r.r.r.r.r.",
"r.r.r.r.r.r.r.r.r.; x w > m ^ _ ' 9./ 7 9 l - r.r.r.r.r.r.r.r.r.",
"r.r.r.r.r.r.r.r.r.z w.b 5 m ( ` ' ` / c c l $ r.r.r.r.r.r.r.r.r.",
"r.r.r.r.r.r.r.r.r.s 0.v ~ Q ( 3.6.( R 0.w.x . r.r.r.r.r.r.r.r.r.",
"r.r.r.r.r.r.r.r.r.r.0 6 ~ ! ~ g k 5.! 0.0.s r.r.r.r.r.r.r.r.r.r.",
"r.r.r.r.r.r.r.r.r.r.r.4 2./ q 9 9 j 9.! s = r.r.r.r.r.r.r.r.r.r.",
"r.r.r.r.r.r.r.r.r.r.r.6 2./ 7 9 l e 9.6.6 r.r.r.r.r.r.r.r.r.r.r.",
"r.r.r.r.r.r.r.r.r.r.r.6 6.( 8 l N q _ 7.d r.r.r.r.r.r.r.r.r.r.r.",
"r.r.r.r.r.r.r.r.r.r.r.: ( 5.d l N j 7.' 8 r.r.r.r.r.r.r.r.r.r.r.",
"r.r.r.r.r.r.r.r.r.r.r.- B 5.6 $ $ g 7.( ; r.r.r.r.r.r.r.r.r.r.r.",
"r.r.r.r.r.r.r.r.r.r.r.O f 5.4     6 7.h + r.r.r.r.r.r.r.r.r.r.r.",
"r.r.r.r.r.r.r.r.r.r.r.% P 2 @   X ; a Y < r.r.r.r.r.r.r.r.r.r.r.",
"r.r.r.r.r.r.r.r.r.r.r.r.% X     % P Y #.< r.r.r.r.r.r.r.r.r.r.r.",
"r.r.r.r.r.r.r.r.r.r.r.r.r.r.r.r.X & < < r.r.r.r.r.r.r.r.r.r.r.r."
};
