/* XPM */
static char *result[] = {
/* columns rows colors chars-per-pixel */
"32 32 109 2 ",
"   c black",
".  c #010101",
"X  c #030100",
"o  c gray1",
"O  c #050200",
"+  c gray2",
"@  c #060606",
"#  c #0B0300",
"$  c #0E0600",
"%  c #090909",
"&  c #0B0B0B",
"*  c #0E0A08",
"=  c #0E0E0E",
"-  c #130801",
";  c #14110F",
":  c #19120C",
">  c #0C1313",
",  c #0A1719",
"<  c #021B1E",
"1  c #0D1C1D",
"2  c #111010",
"3  c #121313",
"4  c #161616",
"5  c #1C1717",
"6  c #151A1B",
"7  c gray10",
"8  c #1D1D1D",
"9  c #330202",
"0  c #3A0000",
"q  c #320C0C",
"w  c #251106",
"e  c #241514",
"r  c #371F18",
"t  c #292418",
"y  c #312C1F",
"u  c #061F22",
"i  c #0E2122",
"p  c #062529",
"a  c #162B2E",
"s  c #0B363A",
"d  c #232323",
"f  c #282323",
"g  c #2B2B26",
"h  c #312323",
"j  c #312F27",
"k  c #29352D",
"l  c gray19",
"z  c #373737",
"x  c #430000",
"c  c #530000",
"v  c #5C0000",
"b  c #5F0000",
"n  c #5C0505",
"m  c #620000",
"M  c #660000",
"N  c #620704",
"B  c #690000",
"V  c #670909",
"C  c #700000",
"Z  c #6C1509",
"A  c #512202",
"S  c #58291C",
"D  c #612901",
"F  c #692315",
"G  c #442B20",
"H  c #583A27",
"J  c #683222",
"K  c #304043",
"L  c gray29",
"P  c #4A4F52",
"I  c #557743",
"U  c #5C7172",
"Y  c #616162",
"T  c #850000",
"R  c #8F0000",
"E  c #880E07",
"W  c #990000",
"Q  c #9A0000",
"!  c #990200",
"~  c #990302",
"^  c #9E0000",
"/  c #990502",
"(  c #81160F",
")  c #A60100",
"_  c #B10000",
"`  c #81312B",
"'  c #C60000",
"]  c #C60200",
"[  c #C60904",
"{  c #C60C09",
"}  c red",
"|  c #DF6829",
" . c #C95E4B",
".. c #7DAA65",
"X. c #FF9B72",
"o. c #098595",
"O. c #158595",
"+. c #0C97A8",
"@. c #1C97A8",
"#. c #0BBCD3",
"$. c #94A4A5",
"%. c #FFDF86",
"&. c #ABC3C7",
"*. c #B1EAFF",
"=. c #CBDADA",
"-. c #DFE7E8",
";. c #FFFFEA",
":. c #EBF1F2",
">. c white",
/* pixels */
"$.$.$.$.$.$.$.$.$.$.$.$.$.$.$.$.$.$.$.$.$.$.$.$.$.$.$.$.$.$.$.$.",
"$.=.=.=.&.&.&.&.&.&.=.=.=.&.&.&.&.=.=.=.&.&.&.&.&.&.=.=.=.&.&.&.",
"$.=.-.-.=.=.=.=.=.-.-.-.=.=.M M m x 0 =.=.=.=.=.=.-.-.-.=.=.-.=.",
"$.=.-.-.-.-.-.-.:.:.:.-.C C W W W M v 0 -.-.-.-.:.:.:.-.-.:.-.=.",
"$.&.=.-.-.-.-.:.:.:.-.T } Q T ' ' W C v 0 -.-.:.:.:.-.-.:.-.-.=.",
"$.&.=.-.-.-.:.:.:.-.C } _ ' W R ' ' W B x -.:.:.:.-.-.:.-.-.-.=.",
"$.&.=.-.-.:.:.:.-.-.C ' / E ~ W ' ' ' W v 0 :.:.-.-.:.-.-.-.-.=.",
"$.&.=.-.:.:.:.-.-.:.B ! Z | Z m W ) ' ^ B x :.-.-.:.-.-.-.-.-.=.",
"$.&.=.:.:.:.-.-.:.-.C ] F X.G r V W ' ' W m -.-.:.-.-.-.-.-.-.=.",
"$.&.-.:.:.-.-.:.-.-.B ! J %.I *.` ~ ) ' W M -.:.-.-.-.-.-.-.-.=.",
"$.=.-.:.-.-.:.-.-.-.C ] J ;...>. .E ' ' W M :.-.-.-.-.-.-.-.-.=.",
"$.=.-.-.-.:.-.-.-.-.B ! J ;.%.%.X.( ' W c :.-.-.-.-.-.-.-.-.-.=.",
"$.=.=.-.:.-.-.-.-.-.-.C { ` X.X.J N W B :.-.-.-.-.-.-.-.-.-.-.=.",
"$.&.=.:.-.-.-.-.-.-.-.B ! [ S H w n v x -.-.-.-.-.-.-.-.-.:.-.=.",
"$.&.=.-.-.-.-.-.-.-.-.M W m r %.t h n 9 # -.-.-.-.-.-.-.-.-.-.=.",
"U $.&.&.&.&.&.&.&.&.&.&.b n e k l f q 5 + &.&.&.&.&.&.&.&.&.&.&.",
"$.&.=.-.-.-.-.-.-.-.-.-.v e Y O.i l ; d + -.-.-.-.-.-.-.-.-.-.=.",
"$.=.=.:.-.-.-.-.-.-.:.:.:., O.Y 6 d 4 % . -.-.-.-.-.:.:.:.-.-.=.",
"$.=.-.-.-.-.-.-.-.:.:.:.-.< #.Y 8 d d +   -.-.-.-.:.:.:.-.-.-.=.",
"$.=.-.-.-.-.-.-.:.:.:.-.-.:.< 6 z d & .   -.-.-.:.:.:.-.-.:.-.=.",
"$.&.=.-.-.-.-.:.:.:.-.-.:.-.t j d 4 @ . -.-.-.:.:.:.-.-.:.-.-.=.",
"$.&.=.-.-.-.:.:.:.-.-.:.-.t %.;.g & 4 o -.-.:.:.:.-.-.:.-.-.-.=.",
"$.&.=.-.-.:.:.:.-.-.:.-.-.t %.%.k 4 4 % -.:.:.:.-.-.:.-.-.-.-.=.",
"$.&.=.-.:.:.:.-.-.:.-.-.-.* y K o.1 l 4 + :.:.-.-.:.-.-.-.-.-.=.",
"$.&.=.:.:.:.-.-.:.-.-.-.-.& L o.p 4 = d @ :.-.-.:.-.-.-.-.-.-.=.",
"$.&.-.:.:.-.-.:.-.-.-.-.-.= L o.u 4 & d & -.-.:.-.-.-.-.-.-.-.=.",
"$.=.-.:.-.-.:.-.-.-.-.-.-.7 P +.p d 3 l 4 + :.-.-.-.-.-.-.-.-.=.",
"$.=.-.-.-.:.-.-.-.-.-.-.& L Y @.s z 8 l d % -.-.-.-.-.-.-.-.-.=.",
"$.=.=.-.:.-.-.-.-.-.-.-.& L L Y +.a d 3 l 4 + -.-.-.-.-.-.-.-.=.",
"$.&.=.:.-.-.-.-.-.-.-.-.- : : a #.Y 2 o & l @ -.-.-.-.-.-.:.-.=.",
"$.&.=.-.-.-.-.-.-.-.-.$ D A A % < > +   -.@ -.-.-.-.-.-.-.-.-.=.",
"U $.&.&.&.&.&.&.&.&.&.O $ $ $ X     &.&.&.&.&.&.&.&.&.&.&.&.&.&."
};
